name processed_emg_signals
nRows=57
nColumns=7
 
endheader
time	LGLTMED	LRF	LADDLONG	LST	LTA	LGM
3.0220000000000002	0.1879579295303575	0.1196351614096708	0.0571651333334481	0.0504285038655747	0.2916406475712751	0.2534210522364189
3.023	0.1828456514469453	0.1201401442589551	0.0572416910609469	0.0496045352994762	0.2883860120929669	0.2526373021467032
3.024	0.1778487473367261	0.1206709430800882	0.0573255786482726	0.0487913656956343	0.2851351289327833	0.2518327996146934
3.025	0.1729681829480565	0.121227082330906	0.0574168648703295	0.0479889681634556	0.281889509459317	0.2510061250810887
3.0260000000000002	0.1682048210022885	0.1218080324916309	0.0575156030233235	0.0471973300577414	0.2786506388791328	0.2501559237019641
3.027	0.1635594208140811	0.1224132105484181	0.0576218305839399	0.0464164519715901	0.2754199746253891	0.2492809067763306
3.028	0.159032637999094	0.1230419806043736	0.0577355689042574	0.0456463467457151	0.2721989447699848	0.2483798529973436
3.029	0.1546250242708159	0.123693654618497	0.0578568229435989	0.0448870384955988	0.2689889464637641	0.2474516095238612
3.0300000000000002	0.1503370273279767	0.1243674932725153	0.0579855810383658	0.0441385616578216	0.2657913444094167	0.2464950928713562
3.031	0.14616899083381	0.125062706965246	0.0581218147108759	0.0434009600568401	0.2626074693716156	0.2455092896236674
3.032	0.1421211544883388	0.1257784569337105	0.0582654785181955	0.0426742859933161	0.2594386167290025	0.2444932569695044
3.033	0.1381936541951321	0.1265138564998878	0.0584165099418617	0.0419585993550514	0.2562860450727243	0.2434461230694318
3.0340000000000003	0.1343865223242975	0.1272679724416625	0.0585748293193998	0.0412539667514737	0.2531509748563702	0.2423670872601294
3.035	0.130699688073835	0.1280398264860831	0.0587403398184246	0.0405604606724359	0.2500345871022038	0.241255420103272
3.036	0.1271329779316938	0.1288283969227323	0.0589129274539744	0.0398781586720357	0.246938022168515	0.2401104632867646
3.037	0.1236861162407174	0.1296326203344982	0.059092461149635	0.0392071425779741	0.2438623785829592	0.2389316293863838
3.0380000000000003	0.120358725868568	0.1304513934427523	0.0592787928428503	0.0385474977269277	0.2408087119467653	0.237718401496135
3.039	0.1171503289843736	0.1312835750634613	0.0594717576346798	0.0378993122262778	0.2377780339145883	0.2364703327356852
3.04	0.1140603479435777	0.1321279881704899	0.0596711739841225	0.0372626762425216	0.2347713112546769	0.2351870456431108
3.041	0.1110881062821926	0.1329834220618586	0.0598768439469657	0.0366376813165647	0.2317894649935895	0.2338682314609131
3.0420000000000003	0.1082328298212753	0.1338486346244652	0.0600885534589545	0.0360244197060521	0.2288333696494722	0.2325136493228138
3.043	0.1054936478821225	0.1347223546922579	0.0603060726629237	0.0354229837547526	0.2259038525574024	0.2311231253482999
3.044	0.102869594612354	0.1356032844926287	0.0605291562794091	0.0348334652889086	0.2230016932902075	0.2296965516514753
3.045	0.1003596104227929	0.1364901021753989	0.0607575440200643	0.0342559550404368	0.2201276231777572	0.2282338852705589
3.0460000000000003	0.0979625435349132	0.13738146441854	0.0609909610431297	0.0336905420967569	0.2172823249274719	0.226735147024344
3.047	0.0956771516383695	0.1382760091045329	0.06122911844995	0.033137313377041	0.2144664323482746	0.2252004203017718
3.048	0.0935021036580232	0.1391723580610082	0.0614717138214529	0.0325963531346557	0.2116805301796344	0.2236298497905678
3.049	0.0914359816296817	0.1400691198590495	0.0617184317933181	0.0320677424854801	0.208925154026915	0.2220236401502967
3.0500000000000003	0.0894772826836071	0.140964892662307	0.0619689446684027	0.031551558961805	0.2062007904038939	0.2203820546345434
3.051	0.0876244211346847	0.1418582671197949	0.0622229130648274	0.0310478760914482	0.2035078768832199	0.2187054136662125
3.052	0.0858757306779188	0.1427478292951448	0.0624799865980271	0.0305567630017262	0.2008468023554254	0.2169940933693782
3.053	0.0842294666876918	0.1436321636250336	0.0627398045948826	0.0300782840479196	0.1982179073970347	0.2152485240604697
3.0540000000000003	0.082683808618949	0.1445098558995508	0.0630019968381334	0.0296124984658437	0.1956214847479774	0.2134691887012569
3.055	0.0812368625082278	0.1453794962573998	0.0632661843392082	0.0291594600480841	0.1930577798981566	0.2116566213157917
3.056	0.0798866635722518	0.1462396821891152	0.0635319801377238	0.0287192168434641	0.1905269917827507	0.2098114053734415
3.057	0.0786311789015607	0.1470890215416595	0.0637989901259727	0.0282918108791836	0.1880292735854151	0.207934172140138
3.0580000000000003	0.0774683102464348	0.147926135518053	0.064066813896797	0.0278772779051022	0.1855647336481816	0.2060255989998616
3.059	0.0763958968921556	0.1487496616658578	0.0643350456132867	0.0274756471596123	0.1831334364863489	0.2040864077482317
3.06	0.0754117186203928	0.149558256848492	0.0646032748987642	0.0270869411564737	0.1807354039061125	0.2021173628598216
3.061	0.0745134987533149	0.150350600193393	0.0648710877455027	0.0267111754921068	0.1783706162222316	0.2001192697307166
3.0620000000000003	0.073698907276754	0.1511253960108211	0.0651380674405963	0.0263483586727106	0.1760390135725146	0.1980929728977868
3.063	0.0729655640386204	0.1518813766768796	0.0654037955073666	0.0259984919606657	0.1737404973255339	0.1960393542362756
3.064	0.0723110420184325	0.152617305474144	0.065667852660677	0.0256615692396408	0.1714749315775189	0.1939593311374123
3.065	0.0717328706637399	0.1533319793831121	0.0659298197744808	0.0253375768977607	0.1692421447338924	0.1918538546678532
3.0660000000000003	0.0712285392889422	0.1540242318177621	0.0661892788599193	0.0250264937282488	0.1670419311704254	0.1897239077128104
3.067	0.0707955005318726	0.1546929352984742	0.0664458140522283	0.0247282908468952	0.1648740529685042	0.1875705031046461
3.068	0.0704311738633059	0.1553370040556347	0.0666990126046183	0.0244429316257817	0.1627382417185319	0.185394681738779
3.069	0.0701329491444776	0.1559553965574247	0.0669484658872073	0.0241703716427073	0.160634200385011	0.1831975106787934
3.0700000000000003	0.0698981902274738	0.1565471179551977	0.067193770389055	0.0239105586458055	0.158561605226336	0.1809800812525877
3.071	0.069724238593284	0.1571112224399251	0.0674345287213156	0.0236634325328744	0.1565201077617852	0.1787435071412622
3.072	0.0696084170220661	0.1576468155028941	0.0676703506196434	0.0234289253450226	0.15450933677764	0.1764889224622348
3.073	0.0695480332900169	0.1581530560937754	0.0679008539439312	0.0232069612742075	0.1525289003639244	0.1742174798478195
3.074	0.0695403838869658	0.1586291586688718	0.0681256656734968	0.0229974566842706	0.1505783879727314	0.1719303485202805
3.075	0.069582757748722	0.1590743951223852	0.0683444228957654	0.0228003201451052	0.148657372488786	0.1696287123643522
3.076	0.0696724399979173	0.1594880965934588	0.0685567737863694	0.0226154524794795	0.1467654123025244	0.1673137679983293
3.077	0.0698067156870019	0.1598696551419814	0.0687623785786035	0.0224427468221229	0.1449020533756362	0.1649867228452561
3.078	0.0699828735367824	0.1602185252862895	0.0689609105200558	0.0222820886906029	0.1430668312890093	0.1626487932061796
